<?xml version="1.0" encoding="utf-8"?>
<!-- Generator: Adobe Illustrator 24.3.0, SVG Export Plug-In . SVG Version: 6.00 Build 0)  -->
<svg version="1.1" id="Layer_1" xmlns="http://www.w3.org/2000/svg" xmlns:xlink="http://www.w3.org/1999/xlink" x="0px" y="0px"
	 viewBox="0 0 32 32" enable-background="new 0 0 32 32" xml:space="preserve">
<g>
	<g>
		<path d="M16.07,1.946c2.956,0,5.352,3.019,5.352,6.743c0,2.612-1.179,4.876-2.903,5.996c-0.412,0.268-0.671,0.716-0.671,1.208
			v1.045c0,0.813,0.659,1.471,1.471,1.471h0.692c4.361,0,7.897,3.535,7.897,7.897v3.75H4.092V26.34c0-4.362,3.569-7.932,7.932-7.932
			h0.76c0.813,0,1.471-0.659,1.471-1.471v-1.065c0-0.49-0.256-0.937-0.664-1.207c-1.707-1.127-2.872-3.38-2.872-5.976
			C10.718,4.965,13.114,1.946,16.07,1.946 M16.07,0.946c-3.502,0-6.352,3.473-6.352,7.743c0,2.849,1.273,5.459,3.322,6.811
			c0.135,0.089,0.215,0.228,0.215,0.372v1.065c0,0.26-0.211,0.471-0.471,0.471h-0.76c-4.925,0-8.932,4.007-8.932,8.932v3.715
			c0,0.552,0.448,1,1,1h23.815c0.552,0,1-0.448,1-1v-3.75c0-4.906-3.991-8.897-8.897-8.897h-0.692c-0.26,0-0.471-0.211-0.471-0.471
			v-1.045c0-0.143,0.081-0.281,0.215-0.369c2.072-1.345,3.359-3.964,3.359-6.834C22.422,4.419,19.572,0.946,16.07,0.946L16.07,0.946
			z"/>
	</g>
	<g>
		<g>
			<path d="M8.5,30.5C8.224,30.5,8,30.276,8,30v-4c0-0.276,0.224-0.5,0.5-0.5S9,25.724,9,26v4C9,30.276,8.776,30.5,8.5,30.5z"/>
		</g>
		<g>
			<path d="M23.5,30.5c-0.276,0-0.5-0.224-0.5-0.5v-4c0-0.276,0.224-0.5,0.5-0.5S24,25.724,24,26v4C24,30.276,23.776,30.5,23.5,30.5
				z"/>
		</g>
	</g>
	<g>
		<path d="M13.946,7.468c-1.215,0-2.408-0.32-3.449-0.924c-0.239-0.139-0.32-0.445-0.182-0.684c0.139-0.239,0.443-0.319,0.684-0.182
			c0.889,0.517,1.908,0.79,2.947,0.79c2.339,0,4.438-1.369,5.348-3.487c0.109-0.254,0.403-0.37,0.657-0.262
			c0.254,0.109,0.371,0.403,0.262,0.657C19.145,5.862,16.686,7.468,13.946,7.468z"/>
	</g>
</g>
<g>
	<path d="M24.325,18.69c-0.273-0.019-0.508,0.205-0.518,0.481c-0.151,4.044-3.316,7.239-7.301,7.492
		c-0.009-0.034-0.021-0.067-0.03-0.101c0.666-1.956,2.514-3.327,4.625-3.327c0.276,0,0.5-0.224,0.5-0.5s-0.224-0.5-0.5-0.5
		c-2.179,0-4.124,1.217-5.144,3.046c-1.02-1.829-2.966-3.046-5.144-3.046c-0.276,0-0.5,0.224-0.5,0.5s0.224,0.5,0.5,0.5
		c2.11,0,3.959,1.371,4.625,3.327c-0.009,0.033-0.02,0.064-0.029,0.097c-3.918-0.292-7.038-3.448-7.213-7.434
		c-0.012-0.276-0.237-0.496-0.521-0.478c-0.276,0.012-0.49,0.246-0.478,0.521c0.208,4.721,4.075,8.418,8.804,8.418
		c4.761,0,8.629-3.725,8.806-8.479C24.816,18.932,24.601,18.7,24.325,18.69z"/>
	<path d="M28,28h-4c-0.276,0-0.5,0.224-0.5,0.5S23.724,29,24,29h4c0.276,0,0.5-0.224,0.5-0.5S28.276,28,28,28z"/>
	<path d="M8,28H4c-0.276,0-0.5,0.224-0.5,0.5S3.724,29,4,29h4c0.276,0,0.5-0.224,0.5-0.5S8.276,28,8,28z"/>
</g>
</svg>
